<?xml version="1.0" encoding="utf-8"?>
<!DOCTYPE svg PUBLIC "-//W3C//DTD SVG 1.1//EN" "http://www.w3.org/Graphics/SVG/1.1/DTD/svg11.dtd" [
	<!ENTITY st0 "fill:none;stroke:#1E5782;stroke-width:1.5;stroke-miterlimit:10;">
	<!ENTITY st1 "fill:#1E5782;">
	<!ENTITY st2 "fill:#FFFFFF;stroke:#0062A7;stroke-width:1.5;stroke-miterlimit:10;">
	<!ENTITY st4 "fill:#A3C84F;stroke:#1E5782;stroke-width:1.5;stroke-miterlimit:10;">
]>
<svg version="1.1" viewBox="-1 -1 190 100" xmlns="http://www.w3.org/2000/svg" xmlns:xlink="http://www.w3.org/1999/xlink">
	<path style="&st1;" d="M27.2,73.8v21c0,1.5,0,1.5,0,1.5h13.9c3.3,0,6-2.7,6-6c0,0,0-32.3,0-36.4L27.2,73.8z"/>
	<path style="&st2;" d="M15.9,52L1,66.9c-1,1-1,1-1,1l9.8,9.8c2.3,2.3,6.1,2.3,8.5,0c0,0,22.8-22.8,25.7-25.7L15.9,52z"/>
	<path style="&st1;" d="M25.1,29.2h-21c-1.5,0-1.5,0-1.5,0l0,13.9c0,3.3,2.7,6,6,6c0,0,32.3,0,36.4,0L25.1,29.2z"/>
	<path style="&st2;" d="M45.5,14.5L30.7,1c-1-1-1-1-1-1l-9.8,9.8c-2.3,2.3-2.3,6.1,0,8.5c0,0,22.8,22.8,25.7,25.7V15.9z"/>
	<path style="&st1;" d="M69,24.3v-21c0-1.5,0-1.5,0-1.5H55.1c-3.3,0-6,2.7-6,6c0,0,0,32.3,0,36.4L69,24.3z"/>
	<path style="&st4;" d="M97.1,41.5L112,26.6c1-1,1-1,1-1l-9.8-9.8c-2.3-2.3-6.1-2.3-8.5,0c0,0-22.8,22.8-25.7,25.7H97.1z"/>
	<path style="&st1;" d="M73.4,71.3l21,0c1.5,0,1.5,0,1.5,0l0-13.9c0-3.3-2.7-6-6-6c0,0-32.3,0-36.4,0L73.4,71.3z"/>
	<path style="&st2;" d="M51.1,82.6L66,97.4c1,1,1,1,1,1l9.8-9.8c2.3-2.3,2.3-6.1,0-8.5c0,0-22.8-22.8-25.7-25.7L51.1,82.6z"/>
	<path id="c" style="&st1;" d="M118,88.3c-2.6,0-5.1-0.4-7.3-1.2c-2.2-0.8-4.2-1.9-5.8-3.5s-2.8-3.5-3.7-5.8c-0.9-2.3-1.3-5-1.3-8
		c0-2.8,0.4-5.4,1.3-7.7c0.8-2.3,2.1-4.3,3.7-5.9c1.5-1.6,3.5-2.8,5.7-3.6s4.8-1.3,7.5-1.3c1.5,0,2.8,0.1,4,0.3
		c1.2,0.2,2.3,0.4,3.3,0.7c1.1,0.3,2,0.6,2.9,1c0.9,0.4,1.6,0.7,2.3,1v8.6h-1c-0.4-0.4-1-0.8-1.7-1.4c-0.7-0.5-1.4-1-2.3-1.5
		c-0.9-0.5-1.8-0.9-2.8-1.3c-1-0.3-2.1-0.5-3.3-0.5c-1.3,0-2.5,0.2-3.7,0.6c-1.2,0.4-2.2,1.1-3.2,2c-0.9,0.9-1.7,2.1-2.3,3.6
		c-0.6,1.5-0.9,3.3-0.9,5.4c0,2.2,0.3,4.1,0.9,5.6c0.6,1.5,1.4,2.7,2.4,3.5c1,0.9,2.1,1.5,3.2,1.9c1.2,0.4,2.4,0.6,3.5,0.6
		c1.1,0,2.2-0.2,3.3-0.5c1.1-0.3,2.1-0.8,3-1.4c0.8-0.5,1.5-0.9,2.2-1.5c0.7-0.5,1.2-1,1.6-1.4h1v8.5c-0.9,0.4-1.7,0.8-2.6,1.1
		s-1.7,0.7-2.6,0.9c-1.2,0.3-2.2,0.6-3.3,0.8S119.8,88.3,118,88.3z"/>
	<rect x="108.8" y="65.4" style="&st1;" width="15.9" height="6.9"/>
	<path style="&st1;" d="M158.3,58.9H142v6.6h15.1v6.9H142v15.2h-9.1V52.1h25.4V58.9z"/>
	<use xlink:href="#c" transform="translate(59,0)" />
	<polyline style="&st0;" points="99.1,1.8 54.5,46.6 188.5,46.6 "/>
</svg>
